<svg xmlns="http://www.w3.org/2000/svg" width="1024" height="1024" viewBox="0 0 1024 1024">
<g>
<path d="M 500.76 860.53 C498.77,862.21 488.07,860.91 476.70,857.60 L 471.00 855.94 L 471.00 783.00 L 464.10 783.00 L 463.50 794.50 L 457.60 788.50 C451.79,782.59 451.70,782.42 451.90,777.20 C452.01,774.28 451.81,769.89 451.44,767.45 C450.80,763.19 450.63,763.00 447.39,763.00 L 444.00 763.00 L 444.00 786.54 L 454.04 796.52 L 464.08 806.50 L 463.93 827.32 C463.76,850.09 463.55,852.00 461.14,852.00 C457.82,852.00 441.28,842.87 434.70,837.41 C420.79,825.86 412.30,813.34 407.65,797.50 L 405.30 789.50 L 392.66 780.97 C385.70,776.28 379.30,771.73 378.43,770.86 C377.03,769.46 376.79,762.23 376.34,709.09 C375.87,653.00 375.95,648.72 377.58,646.20 C378.54,644.72 384.24,637.77 390.24,630.76 C396.54,623.40 401.01,617.32 400.82,616.38 C400.65,615.48 399.55,614.11 398.39,613.34 C396.39,612.02 395.56,612.77 382.13,628.03 L 367.97 644.11 L 368.02 703.19 C368.04,735.69 367.93,762.41 367.76,762.57 C367.60,762.73 364.55,760.51 360.98,757.64 L 354.50 752.41 L 354.27 685.95 L 354.05 619.50 L 357.25 617.50 C361.30,614.96 362.97,611.66 362.99,606.15 C363.00,601.14 360.37,596.76 355.97,594.48 C347.36,590.03 337.01,596.60 337.01,606.50 C337.01,611.23 339.98,616.58 343.50,618.18 L 346.00 619.32 L 346.00 682.16 C346.00,716.72 345.63,745.00 345.17,745.00 C342.93,745.00 317.59,720.78 308.56,710.00 C291.38,689.49 278.82,664.09 272.14,636.35 C266.53,613.09 265.13,595.65 266.93,571.50 C268.82,546.14 272.70,526.94 282.88,492.60 C285.15,484.95 287.00,478.05 287.00,477.26 C287.00,476.47 284.98,473.51 282.50,470.68 C273.03,459.85 267.92,446.45 267.87,432.32 C267.84,420.98 269.15,415.44 274.14,405.86 C281.19,392.30 294.84,381.30 309.15,377.64 C311.82,376.96 314.40,375.97 314.88,375.45 C315.36,374.93 316.97,369.77 318.45,364.00 C319.93,358.23 323.18,346.52 325.68,338.00 C328.17,329.48 331.10,319.12 332.18,315.00 C335.77,301.29 341.86,284.24 346.35,275.32 C359.15,249.90 379.19,227.09 402.16,211.82 C427.69,194.83 463.07,183.09 490.06,182.66 L 499.95 182.50 L 500.62 279.63 L 501.29 376.75 L 496.65 381.21 C492.40,385.27 492.00,386.07 492.00,390.38 C492.00,399.34 496.44,404.00 504.98,404.00 C509.29,404.00 510.55,403.52 513.61,400.72 C520.00,394.86 519.14,384.26 511.94,380.16 L 509.01 378.50 L 509.01 281.25 C509.00,227.76 509.01,183.66 509.03,183.25 C509.04,182.84 513.62,182.60 519.19,182.72 C544.43,183.26 576.32,193.73 601.28,209.66 C624.00,224.16 645.24,245.92 658.61,268.39 C668.22,284.54 670.01,290.02 688.87,361.00 C692.28,373.82 693.00,375.58 695.11,376.22 C696.43,376.61 700.20,377.71 703.50,378.67 C706.84,379.64 712.82,382.67 716.99,385.50 C727.86,392.88 734.26,401.85 739.17,416.59 C742.49,426.55 742.33,440.82 738.79,450.24 C735.36,459.35 730.40,467.35 725.15,472.20 C721.97,475.14 720.93,476.79 721.27,478.36 C721.52,479.54 724.69,490.68 728.31,503.13 C739.31,540.89 742.23,558.63 742.30,588.00 C742.34,602.86 741.87,611.53 740.60,619.50 C735.22,653.40 721.70,684.71 702.40,708.00 C694.84,717.12 666.33,745.00 664.56,745.00 C664.25,745.00 664.00,716.76 664.01,682.25 L 664.01 619.50 L 666.92 617.85 C673.11,614.33 675.20,606.11 671.64,599.27 C668.36,592.95 659.25,591.01 652.91,595.28 C648.77,598.07 647.03,601.31 647.01,606.30 C647.00,611.12 649.02,614.95 652.93,617.50 L 655.99 619.50 L 656.00 751.55 L 649.02 756.78 C645.18,759.65 641.80,762.00 641.52,762.00 C641.23,762.00 641.00,735.03 641.00,702.07 L 641.00 642.14 L 627.83 627.32 C620.58,619.17 614.15,612.37 613.53,612.22 C612.92,612.06 611.38,613.03 610.12,614.37 L 607.84 616.80 L 614.70 624.65 C618.47,628.97 624.13,635.56 627.28,639.31 L 633.00 646.11 L 633.00 768.91 L 622.75 776.20 C617.12,780.22 610.65,784.69 608.38,786.15 C604.73,788.49 604.00,789.63 602.03,796.11 C596.38,814.72 583.49,832.18 567.77,842.51 C565.42,844.05 562.38,846.07 561.00,847.00 C558.19,848.90 549.21,853.00 547.87,853.00 C547.39,853.00 547.01,842.54 547.02,829.75 L 547.04 806.50 L 556.49 796.50 L 565.94 786.50 L 566.00 763.00 L 559.30 763.00 L 557.96 783.50 L 547.00 794.48 L 547.00 783.00 L 539.00 783.00 L 539.00 856.68 L 530.75 858.90 C526.21,860.13 519.46,861.39 515.75,861.71 L 509.00 862.29 L 509.00 819.15 C509.00,795.42 509.24,776.00 509.54,776.00 C509.84,776.00 512.27,778.04 514.94,780.54 L 519.79 785.08 L 522.49 782.76 L 525.19 780.44 L 516.03 771.47 C510.98,766.54 506.33,762.20 505.68,761.84 C504.99,761.46 500.32,765.08 494.50,770.52 L 484.50 779.86 L 489.91 785.36 L 500.50 775.50 L 500.76 817.91 C500.90,841.23 500.90,860.41 500.76,860.53 ZM 387.97 570.88 C410.29,592.07 410.45,592.20 411.97,589.91 C423.49,572.54 437.71,554.11 445.46,546.50 C453.65,538.46 455.28,536.23 460.74,525.50 C472.69,502.03 476.09,482.12 470.48,468.50 C469.12,465.20 468.01,462.37 468.00,462.21 C468.01,462.05 498.94,462.06 536.75,462.24 C612.51,462.59 610.00,462.39 623.70,469.06 C630.50,472.37 637.12,479.00 640.11,485.50 C642.92,491.59 642.62,493.00 638.55,493.00 C635.42,493.00 634.91,492.58 633.11,488.53 C631.31,484.44 626.31,480.01 623.48,480.00 C622.83,480.00 622.47,485.53 622.48,495.25 C622.50,511.98 621.77,515.54 616.75,523.10 C612.78,529.07 606.11,533.53 598.00,535.60 C592.60,536.99 588.42,537.17 573.24,536.68 C572.05,536.64 570.94,536.60 569.89,536.56 C560.50,536.25 556.55,536.11 556.04,537.36 C555.68,538.27 557.14,539.92 559.67,542.76 C560.06,543.20 560.47,543.66 560.90,544.15 C563.16,546.71 565.00,549.07 565.00,549.39 C565.00,549.71 567.14,552.70 569.75,556.03 C575.28,563.07 576.13,564.21 585.74,577.50 C589.72,583.00 593.83,588.59 594.88,589.93 L 596.78 592.36 L 600.14 589.60 C601.99,588.08 615.72,575.06 630.65,560.67 L 657.80 534.50 L 657.90 504.48 C658.01,471.60 657.34,466.53 651.33,454.66 C647.84,447.76 637.80,435.76 631.91,431.43 C624.82,426.23 613.15,421.20 605.38,419.99 C600.74,419.27 566.27,419.03 499.50,419.26 C410.45,419.55 399.95,419.75 395.05,421.26 C375.46,427.26 360.12,442.10 352.14,462.76 C349.57,469.43 349.54,469.81 349.25,501.00 L 348.95 532.50 L 357.23 541.02 C361.78,545.70 375.61,559.14 387.97,570.88 ZM 585.37 852.04 C577.19,854.27 569.71,856.33 568.75,856.61 C565.31,857.64 567.11,855.40 573.84,850.26 C583.91,842.58 596.18,829.31 601.30,820.56 C603.78,816.34 607.03,809.12 608.52,804.52 L 611.24 796.17 L 619.37 790.83 C629.01,784.51 660.97,760.78 669.50,753.61 C698.99,728.84 717.80,706.75 730.43,682.05 C741.47,660.46 748.75,637.50 752.02,613.95 C753.28,604.94 753.54,569.64 752.43,559.25 C751.89,554.20 752.04,553.00 753.19,553.00 C753.97,553.00 769.21,562.83 787.06,574.84 L 819.50 596.68 L 819.25 601.38 C818.74,611.15 810.06,641.54 802.14,661.22 C793.23,683.41 776.14,712.58 759.23,734.50 C746.71,750.72 722.65,775.40 705.28,789.85 C673.12,816.59 626.32,840.86 585.37,852.04 ZM 443.00 855.59 C443.00,856.34 439.55,855.86 435.50,854.53 C433.30,853.81 426.33,851.80 420.00,850.05 C385.15,840.44 345.83,820.97 317.21,799.15 C292.56,780.36 264.92,752.40 246.16,727.26 C231.09,707.08 211.32,670.07 202.48,645.50 C198.66,634.90 193.52,616.63 189.63,599.85 C189.08,597.49 189.59,596.84 194.26,593.90 C202.03,589.00 217.26,579.11 237.47,565.82 C247.36,559.32 256.07,554.00 256.84,554.00 C257.86,554.00 258.02,554.61 257.43,556.25 C256.08,560.04 255.76,601.70 257.00,612.00 C260.45,640.57 271.99,673.55 286.65,696.73 C304.00,724.18 338.68,756.13 386.74,788.96 C391.82,792.43 396.38,795.77 396.87,796.38 C397.36,797.00 398.52,800.20 399.46,803.50 C404.37,820.87 420.74,841.48 438.13,852.17 C440.81,853.82 443.00,855.36 443.00,855.59 ZM 405.07 714.25 C408.26,715.88 415.05,716.00 504.00,716.00 C592.95,716.00 599.74,715.88 602.93,714.25 C610.13,710.58 610.47,709.35 610.78,685.68 C611.08,662.31 610.60,659.92 604.68,655.57 C601.87,653.51 601.16,653.50 504.93,653.20 C499.86,653.19 495.05,653.17 490.48,653.16 C411.96,652.91 404.41,652.88 401.09,656.62 C400.55,657.23 400.11,657.95 399.50,658.78 C397.64,661.31 397.50,663.07 397.50,684.18 C397.50,705.54 397.62,707.02 399.57,709.68 C400.71,711.23 403.19,713.29 405.07,714.25 ZM 437.83 628.25 L 451.41 642.00 L 470.70 642.00 C485.87,642.00 490.00,641.72 490.00,640.70 C490.00,639.98 489.57,638.97 489.04,638.44 C488.52,637.92 487.95,633.45 487.79,628.51 L 487.50 619.54 L 467.13 609.15 L 466.37 608.76 C452.39,601.63 447.58,599.17 445.91,600.54 C445.00,601.29 445.01,603.15 444.98,606.00 C444.94,610.18 444.83,610.36 443.47,608.56 C441.05,605.36 441.67,599.09 444.96,593.50 C448.46,587.55 457.23,578.00 459.20,578.00 C461.27,578.00 492.14,598.67 494.75,601.80 C496.89,604.38 496.99,605.31 497.00,622.75 L 497.00 641.00 L 512.00 641.00 L 512.00 622.93 C512.00,612.72 512.44,604.05 513.01,602.99 C515.05,599.16 545.34,578.00 548.77,578.00 C551.27,578.00 561.94,589.24 564.44,594.51 C567.06,600.03 566.98,605.46 564.26,608.19 L 562.05 610.40 L 562.57 605.45 C563.49,596.77 563.22,596.80 542.89,607.58 C532.77,612.94 523.71,618.00 522.75,618.82 C521.35,620.01 521.00,621.93 521.00,628.50 C521.00,635.39 520.69,636.97 519.02,638.48 C517.94,639.46 517.30,640.67 517.60,641.16 C517.92,641.68 526.76,641.81 538.26,641.47 C549.84,641.13 554.75,641.38 558.76,639.61 C562.85,637.81 566.02,633.91 574.37,625.15 C585.68,613.28 588.94,608.05 588.98,601.71 C589.00,597.85 586.47,591.89 582.51,586.50 C566.42,564.60 559.58,555.85 557.83,554.91 C556.66,554.29 553.38,553.97 550.52,554.21 C544.21,554.73 537.87,558.18 509.60,576.49 L 504.69 579.67 L 491.10 571.00 C469.28,557.08 463.16,554.00 457.30,554.00 C450.66,554.00 449.39,555.10 437.01,571.53 C422.70,590.54 420.00,595.25 420.00,601.23 C420.00,608.70 423.00,613.24 437.83,628.25 ZM 314.87 563.32 C316.34,564.23 319.65,564.96 322.37,564.97 C326.70,565.00 327.66,564.58 331.12,561.12 C334.57,557.66 335.00,556.70 334.99,552.37 C334.97,546.19 333.40,543.12 328.72,540.08 L 325.00 537.66 L 325.00 449.98 L 348.29 426.24 C361.10,413.18 374.04,399.92 377.04,396.76 L 382.50 391.02 L 403.00 390.93 L 423.50 390.84 L 424.08 408.00 L 456.69 408.00 L 457.34 392.84 C457.70,384.50 458.00,373.73 458.00,368.89 L 458.00 360.10 L 451.75 359.80 L 445.50 359.50 L 445.50 298.50 L 441.76 298.19 L 438.03 297.88 L 437.76 328.69 L 437.50 359.50 L 430.87 359.79 C424.34,360.08 424.22,360.14 423.62,363.17 C423.28,364.86 423.00,370.02 423.00,374.62 L 423.00 383.00 L 379.42 383.00 L 365.95 396.75 C358.55,404.31 344.51,418.67 334.75,428.66 L 317.00 446.83 L 317.00 492.86 C317.00,535.81 316.88,538.97 315.22,540.19 C307.02,546.22 306.84,558.33 314.87,563.32 ZM 678.46 561.66 C681.27,564.47 682.52,565.00 686.35,565.00 C688.86,565.00 692.06,564.47 693.48,563.83 C697.25,562.11 700.17,556.77 700.17,551.59 C700.17,546.27 698.97,543.83 695.00,541.00 L 692.00 538.86 L 691.99 492.68 L 691.98 446.50 L 673.74 428.00 C663.71,417.82 649.75,403.53 642.72,396.25 L 629.94 383.00 L 584.88 383.00 L 585.50 390.50 L 605.60 390.77 L 625.70 391.04 L 654.85 420.53 L 684.00 450.03 L 684.00 494.45 C684.00,537.65 683.95,538.88 682.04,539.49 C679.10,540.42 675.16,545.61 674.43,549.52 C673.51,554.45 674.62,557.82 678.46,561.66 ZM 550.50 359.50 L 549.96 408.05 L 583.50 407.50 L 583.77 383.88 L 584.04 360.27 L 580.27 359.64 C578.20,359.30 575.02,359.02 573.21,359.01 L 569.92 359.00 L 570.05 328.75 L 570.18 298.50 L 566.59 298.19 L 563.00 297.88 L 563.00 358.90 L 556.75 359.20 ZM 594.00 295.00 L 594.00 329.00 L 610.39 329.00 C624.42,329.00 626.87,328.77 627.39,327.42 C627.73,326.55 628.00,318.90 628.00,310.42 L 628.00 295.00 L 615.00 295.00 L 615.00 267.65 L 617.70 270.08 C619.19,271.41 621.05,273.09 621.84,273.81 C623.03,274.91 623.73,274.68 626.08,272.42 L 628.89 269.73 L 620.80 260.91 C614.47,254.00 612.36,252.28 611.11,252.97 C610.22,253.46 605.95,257.46 601.60,261.85 L 593.70 269.84 L 596.60 272.39 L 596.68 272.46 C598.50,274.06 599.37,274.82 600.18,274.77 C600.93,274.71 601.63,273.95 603.00,272.50 C604.29,271.12 605.72,270.00 606.17,270.00 C606.63,270.00 607.00,275.40 607.00,282.00 C607.00,292.70 606.81,294.02 605.25,294.15 C604.29,294.24 603.05,294.41 602.50,294.54 C601.95,294.66 599.81,294.82 597.75,294.88 ZM 716.96 459.75 C717.57,462.09 718.51,464.00 719.03,464.00 C720.63,464.00 726.84,454.82 729.18,449.00 C731.01,444.46 731.40,441.46 731.45,431.88 L 731.50 420.27 L 727.11 411.61 C721.88,401.29 714.69,394.11 705.27,389.83 C699.26,387.10 695.00,386.22 695.00,387.72 C695.00,388.50 706.90,427.48 712.49,445.00 C714.33,450.77 716.34,457.41 716.96,459.75 ZM 286.77 460.17 C288.82,462.71 290.76,464.50 291.08,464.15 C291.60,463.58 300.66,432.05 309.23,401.00 C310.83,395.23 312.39,389.69 312.70,388.70 C313.18,387.16 312.84,386.99 310.38,387.56 C298.54,390.28 287.97,399.22 281.75,411.78 C277.51,420.33 277.50,420.38 277.53,431.42 C277.56,441.18 277.89,443.28 280.30,449.02 C281.80,452.61 284.71,457.63 286.77,460.17 ZM 470.00 332.10 L 470.00 408.00 L 478.00 408.00 L 478.00 332.10 L 489.50 331.50 L 490.12 324.00 L 478.00 324.00 L 478.00 258.00 L 470.00 258.00 L 470.00 324.00 L 458.88 324.00 L 459.50 331.50 L 464.75 331.80 ZM 315.30 694.04 C319.16,696.39 324.04,696.55 328.09,694.45 C336.78,689.96 337.32,676.26 329.01,671.34 L 326.00 669.57 L 326.00 618.64 L 305.25 597.57 C293.84,585.98 284.02,576.37 283.44,576.21 C282.08,575.85 278.68,579.56 279.15,580.90 C279.34,581.46 288.09,590.83 298.59,601.71 L 317.67 621.50 L 318.30 645.31 L 318.92 669.11 L 315.42 671.18 C306.87,676.22 306.80,688.86 315.30,694.04 ZM 683.46 694.94 C685.48,695.52 686.38,695.82 687.28,695.83 C688.08,695.83 688.89,695.61 690.52,695.15 C690.72,695.09 690.95,695.03 691.19,694.97 C695.69,693.72 699.52,689.38 700.43,684.51 C701.32,679.76 697.97,672.55 693.90,670.45 L 691.00 668.95 L 691.00 622.81 L 710.75 602.32 C721.61,591.05 730.66,581.40 730.85,580.86 C731.30,579.61 728.07,576.00 726.50,576.00 C725.84,576.00 720.99,580.61 715.72,586.25 C710.45,591.89 701.15,601.64 695.07,607.93 L 684.00 619.35 L 684.00 668.80 L 680.51 670.86 C678.59,671.99 676.19,674.29 675.17,675.96 C671.30,682.33 675.84,692.72 683.46,694.94 ZM 572.50 517.61 C574.15,518.33 577.75,518.93 580.50,518.94 C593.17,519.00 602.19,506.49 599.57,492.50 C598.82,488.50 593.25,481.70 588.87,479.44 C585.11,477.49 575.67,477.60 571.70,479.65 C565.43,482.87 560.24,490.85 560.08,497.50 C559.90,505.24 565.71,514.65 572.50,517.61 ZM 381.00 294.00 L 381.00 329.05 L 397.75 328.77 L 414.50 328.50 L 415.05 294.00 ZM 487.67 757.33 C488.66,758.33 518.80,758.14 519.41,757.14 C519.71,756.66 520.20,748.79 520.51,739.64 L 521.07 723.00 L 487.00 723.00 L 487.00 739.83 C487.00,749.09 487.30,756.97 487.67,757.33 ZM 554.50 723.50 L 553.95 758.00 L 587.00 758.00 L 587.00 724.25 C587.00,723.84 579.69,723.50 570.75,723.50 ZM 531.71 408.38 C532.11,408.77 533.79,408.96 535.46,408.80 L 538.50 408.50 L 538.76 375.72 L 539.03 342.94 L 543.51 338.64 C547.64,334.69 548.00,333.95 548.00,329.42 C547.99,323.15 545.18,318.39 540.28,316.34 C533.10,313.34 526.08,316.31 522.79,323.73 C521.02,327.75 520.92,328.80 522.00,332.40 C522.72,334.83 524.80,337.96 527.11,340.10 L 531.00 343.69 L 531.00 375.68 C531.00,393.27 531.32,407.99 531.71,408.38 ZM 492.71 535.96 C525.85,536.95 542.00,537.10 542.00,536.41 C542.00,536.09 540.39,532.94 538.41,529.41 L 534.83 523.00 L 514.16 522.99 C502.80,522.99 489.21,522.71 483.96,522.36 L 474.42 521.73 L 471.12 527.93 C469.30,531.35 468.06,534.39 468.36,534.70 C468.67,535.00 479.62,535.57 492.71,535.96 ZM 494.82 563.24 C499.59,566.40 503.89,568.99 504.36,568.99 C504.83,569.00 511.13,565.24 518.36,560.64 C525.59,556.04 533.43,551.08 535.79,549.60 C538.14,548.13 539.81,546.49 539.48,545.96 C538.71,544.73 469.00,544.65 469.00,545.89 C469.00,546.38 472.86,549.19 477.57,552.14 C482.28,555.09 490.04,560.08 494.82,563.24 ZM 568.65 679.00 C554.71,679.00 539.97,679.17 535.90,679.38 C531.83,679.59 525.12,679.48 521.00,679.13 L 513.50 678.50 L 513.50 669.50 L 594.00 668.98 L 594.00 679.00 ZM 594.80 693.75 L 594.50 698.50 L 513.00 699.02 L 513.00 690.30 L 522.75 689.66 C528.11,689.30 546.59,689.01 563.80,689.01 L 595.11 689.00 ZM 498.25 512.27 C528.05,512.79 528.43,512.77 528.83,510.65 C529.03,509.63 528.90,507.27 528.55,505.40 L 527.91 502.00 L 482.20 502.00 L 481.10 505.15 C481.01,505.40 480.93,505.63 480.85,505.86 C480.09,508.01 479.60,509.40 480.06,510.32 C480.95,512.07 485.38,512.05 498.25,512.27 ZM 431.11 804.94 C435.60,809.92 439.80,814.00 440.46,814.00 C441.12,814.00 442.69,812.89 443.97,811.53 L 446.29 809.07 L 438.64 801.21 L 431.00 793.36 L 431.00 762.88 L 423.50 763.50 L 423.23 779.69 L 422.95 795.88 ZM 566.60 811.71 L 569.50 814.07 L 577.75 805.50 L 586.00 796.93 L 586.00 762.00 L 579.23 762.00 L 578.69 769.25 C578.38,773.24 578.22,780.27 578.32,784.88 L 578.50 793.26 L 571.10 801.30 L 563.70 809.35 ZM 438.08 691.08 C435.78,693.37 434.26,694.00 431.00,694.00 C421.79,694.00 417.49,683.36 424.05,676.80 C426.80,674.05 427.55,673.80 431.76,674.28 C437.80,674.96 441.00,678.37 441.00,684.13 C441.00,687.24 440.34,688.82 438.08,691.08 ZM 485.00 489.58 L 485.00 492.00 L 526.23 492.00 L 525.63 489.75 C525.30,488.51 525.02,486.71 525.01,485.75 C525.00,484.14 523.40,484.00 505.61,484.00 L 504.48 484.00 C490.74,484.00 486.69,484.00 485.50,485.85 C485.00,486.62 485.00,487.72 485.00,489.28 C485.00,489.38 485.00,489.48 485.00,489.58 ZM 327.61 553.42 C326.42,558.17 319.52,558.43 316.65,553.83 C315.41,551.83 317.14,547.27 319.49,546.36 C323.83,544.70 328.73,548.96 327.61,553.42 ZM 690.78 556.44 C689.56,557.30 688.08,558.00 687.50,558.00 C685.01,558.00 682.00,554.77 682.00,552.10 C682.00,549.17 684.65,546.00 687.11,546.00 C692.43,546.00 695.05,553.45 690.78,556.44 ZM 354.17 610.35 C351.37,612.88 347.33,612.44 345.33,609.38 C343.80,607.04 343.77,606.49 345.09,604.13 C346.03,602.46 347.59,601.38 349.37,601.18 C354.87,600.54 358.13,606.77 354.17,610.35 ZM 664.00 610.00 C661.81,612.19 659.45,612.49 656.75,610.92 C654.71,609.73 654.35,604.05 656.20,602.20 C657.99,600.41 662.47,600.75 664.35,602.83 C666.54,605.26 666.43,607.57 664.00,610.00 Z" fill="rgb(24,50,68)"/>
<path d="M 385.16 506.07 L 384.81 516.00 L 380.12 516.00 C371.09,516.00 362.74,509.35 360.03,500.00 C358.30,494.06 358.79,480.05 360.88,475.50 C365.07,466.37 369.12,465.00 391.97,465.00 C409.33,465.00 410.00,464.93 410.00,463.00 C410.00,461.12 409.33,461.00 398.98,461.00 L 387.95 461.00 L 386.88 458.25 C386.29,456.74 386.05,453.08 386.35,450.12 C387.37,439.86 394.58,435.97 412.43,436.04 C426.72,436.11 432.52,438.53 435.52,445.69 C436.38,447.76 436.97,454.09 437.15,463.21 C437.47,479.30 436.58,482.46 430.70,486.04 C427.87,487.77 425.58,487.99 411.00,488.01 C393.20,488.03 391.19,488.49 387.60,493.32 C385.87,495.64 385.44,497.90 385.16,506.07 ZM 408.61 800.58 C408.27,799.57 407.95,798.54 407.64,797.50 L 405.29 789.50 L 395.89 783.18 C383.09,774.57 370.79,765.87 369.11,764.22 C368.34,763.47 363.16,759.44 357.61,755.26 C352.34,751.31 347.34,747.34 342.58,743.37 C343.91,744.41 344.82,745.00 345.17,745.00 C345.63,745.00 346.00,716.72 346.00,682.16 L 346.00 619.32 L 343.50 618.18 C339.98,616.58 337.01,611.23 337.01,606.50 C337.01,596.60 347.36,590.03 355.97,594.48 C360.37,596.76 363.00,601.14 362.99,606.15 C362.97,611.66 361.30,614.96 357.25,617.50 L 354.05 619.50 L 354.27 685.95 L 354.50 752.41 L 360.98 757.64 C364.55,760.51 367.60,762.73 367.76,762.57 C367.93,762.41 368.04,735.69 368.02,703.19 L 367.97 644.11 L 382.13 628.03 C395.56,612.77 396.39,612.02 398.39,613.34 C399.55,614.11 400.65,615.48 400.82,616.38 C401.01,617.32 396.54,623.40 390.24,630.76 C384.24,637.77 378.54,644.72 377.58,646.20 C375.95,648.72 375.87,653.00 376.34,709.09 C376.79,762.23 377.03,769.46 378.43,770.86 C379.30,771.73 385.70,776.28 392.66,780.97 L 405.30 789.50 L 407.65 797.50 C407.95,798.54 408.28,799.57 408.61,800.58 ZM 664.58 745.00 C657.16,750.87 644.62,760.29 633.00,768.78 L 633.00 646.11 L 627.28 639.31 C624.13,635.56 618.47,628.97 614.70,624.65 L 607.84 616.80 L 610.12 614.37 C611.38,613.03 612.92,612.06 613.53,612.22 C614.15,612.37 620.58,619.17 627.83,627.32 L 641.00 642.14 L 641.00 702.07 C641.00,735.03 641.23,762.00 641.52,762.00 C641.80,762.00 645.18,759.65 649.02,756.78 L 656.00 751.55 L 655.99 619.50 L 652.93 617.50 C649.02,614.95 647.00,611.12 647.01,606.30 C647.03,601.31 648.77,598.07 652.91,595.28 C659.25,591.01 668.36,592.95 671.64,599.27 C675.20,606.11 673.11,614.33 666.92,617.85 L 664.01 619.50 L 664.01 682.25 C664.00,716.76 664.25,745.00 664.56,745.00 C664.56,745.00 664.57,745.00 664.58,745.00 ZM 678.46 561.66 C674.62,557.82 673.51,554.45 674.43,549.52 C675.16,545.61 679.10,540.42 682.04,539.49 C683.95,538.88 684.00,537.65 684.00,494.45 L 684.00 450.03 L 654.85 420.53 L 625.70 391.04 L 605.60 390.77 L 585.50 390.50 L 584.88 383.00 L 629.94 383.00 L 642.72 396.25 C649.75,403.53 663.71,417.82 673.74,428.00 L 691.98 446.50 L 691.99 492.68 L 692.00 538.86 L 695.00 541.00 C698.97,543.83 700.17,546.27 700.17,551.59 C700.17,556.77 697.25,562.11 693.48,563.83 C692.06,564.47 688.86,565.00 686.35,565.00 C682.52,565.00 681.27,564.47 678.46,561.66 ZM 314.87 563.32 C306.84,558.33 307.02,546.22 315.22,540.19 C316.88,538.97 317.00,535.81 317.00,492.86 L 317.00 446.83 L 334.75 428.66 C344.51,418.67 358.55,404.31 365.95,396.75 L 379.42 383.00 L 423.00 383.00 L 423.00 374.62 C423.00,370.14 423.26,365.14 423.59,363.31 C423.26,365.30 423.28,375.92 423.65,387.18 L 424.32 408.00 L 424.08 408.00 L 423.50 390.84 L 403.00 390.93 L 382.50 391.02 L 377.04 396.76 C374.04,399.92 361.10,413.18 348.29,426.24 L 325.00 449.98 L 325.00 537.66 L 328.72 540.08 C333.40,543.12 334.97,546.19 334.99,552.37 C335.00,556.70 334.57,557.66 331.12,561.12 C327.66,564.58 326.70,565.00 322.37,564.97 C319.65,564.96 316.34,564.23 314.87,563.32 ZM 499.95 182.52 C501.38,182.52 502.89,182.52 504.50,182.52 C523.86,182.54 530.14,182.89 537.00,184.36 C538.96,184.78 540.85,185.20 542.68,185.63 C534.51,183.88 526.57,182.88 519.19,182.72 C513.62,182.60 509.04,182.84 509.03,183.25 C509.01,183.66 509.00,227.76 509.01,281.25 L 509.01 378.50 L 511.94 380.16 C519.14,384.26 520.00,394.86 513.61,400.72 C510.55,403.52 509.29,404.00 504.98,404.00 C496.44,404.00 492.00,399.34 492.00,390.38 C492.00,386.07 492.40,385.27 496.65,381.21 L 501.29 376.75 L 500.62 279.63 ZM 440.06 703.25 C437.08,704.76 433.03,705.99 431.07,705.98 C426.65,705.95 419.43,702.77 415.67,699.19 C407.54,691.47 407.79,676.11 416.17,668.30 C423.43,661.53 438.11,661.27 445.32,667.79 C446.36,668.73 448.34,671.72 449.71,674.42 C451.79,678.52 452.14,680.41 451.81,685.65 C451.28,693.97 447.65,699.40 440.06,703.25 ZM 572.50 517.61 C565.71,514.65 559.90,505.24 560.08,497.50 C560.24,490.85 565.43,482.87 571.70,479.65 C575.67,477.60 585.11,477.49 588.87,479.44 C593.25,481.70 598.82,488.50 599.57,492.50 C602.19,506.49 593.17,519.00 580.50,518.94 C577.75,518.93 574.15,518.33 572.50,517.61 ZM 500.76 860.53 C500.90,860.41 500.90,841.23 500.76,817.91 L 500.50 775.50 L 489.91 785.36 L 484.50 779.86 L 494.50 770.52 C500.32,765.08 504.99,761.46 505.68,761.84 C506.33,762.20 510.98,766.54 516.03,771.47 L 525.19 780.44 L 522.49 782.76 L 519.79 785.08 L 514.94 780.54 C512.27,778.04 509.84,776.00 509.54,776.00 C509.24,776.00 509.00,795.42 509.00,819.15 L 509.00 861.58 C499.07,861.83 492.23,861.34 484.09,859.50 C492.40,861.34 499.21,861.84 500.76,860.53 ZM 531.71 408.38 C531.32,407.99 531.00,393.27 531.00,375.68 L 531.00 343.69 L 527.11 340.10 C524.80,337.96 522.72,334.83 522.00,332.40 C520.92,328.80 521.02,327.75 522.79,323.73 C526.08,316.31 533.10,313.34 540.28,316.34 C545.18,318.39 547.99,323.15 548.00,329.42 C548.00,333.95 547.64,334.69 543.51,338.64 L 539.03 342.94 L 538.76 375.72 L 538.50 408.50 L 535.46 408.80 C533.79,408.96 532.11,408.77 531.71,408.38 ZM 539.00 856.43 L 539.00 783.00 L 547.00 783.00 L 547.00 794.48 L 557.96 783.50 L 559.30 763.00 L 566.00 763.00 L 565.94 786.50 L 556.49 796.50 L 547.04 806.50 L 547.02 829.75 C547.01,842.54 547.39,853.00 547.87,853.00 C548.21,853.00 549.05,852.74 550.15,852.31 C546.73,853.71 542.89,855.13 539.00,856.43 ZM 471.00 855.83 C467.12,854.59 463.41,853.24 459.86,851.77 C460.39,851.92 460.83,852.00 461.14,852.00 C463.55,852.00 463.76,850.09 463.93,827.32 L 464.08 806.50 L 454.04 796.52 L 444.00 786.54 L 444.00 763.00 L 447.39 763.00 C450.63,763.00 450.80,763.19 451.44,767.45 C451.81,769.89 452.01,774.28 451.90,777.20 C451.70,782.42 451.79,782.59 457.60,788.50 L 463.50 794.50 L 464.10 783.00 L 471.00 783.00 ZM 470.00 332.10 L 463.78 331.75 C466.60,331.84 470.60,331.86 474.94,331.78 L 489.50 331.50 L 478.00 332.10 L 478.00 408.00 L 470.00 408.00 ZM 615.00 294.60 C609.44,294.34 604.25,294.28 603.00,294.46 C602.87,294.48 602.72,294.50 602.57,294.52 C603.15,294.40 604.33,294.23 605.25,294.15 C606.81,294.02 607.00,292.70 607.00,282.00 C607.00,275.40 606.63,270.00 606.17,270.00 C605.72,270.00 604.29,271.12 603.00,272.50 C601.63,273.95 600.93,274.71 600.18,274.77 C599.37,274.82 598.50,274.06 596.68,272.46 L 596.60 272.39 L 593.70 269.84 L 601.60 261.85 C605.95,257.46 610.22,253.46 611.11,252.97 C612.36,252.28 614.47,254.00 620.80,260.91 L 628.89 269.73 L 626.08 272.42 C623.73,274.68 623.03,274.91 621.84,273.81 C621.05,273.09 619.19,271.41 617.70,270.08 L 615.00 267.65 ZM 431.11 804.94 L 422.95 795.88 L 423.50 763.50 L 431.00 762.88 L 431.00 793.36 L 438.64 801.21 L 446.29 809.07 L 443.97 811.53 C442.69,812.89 441.12,814.00 440.46,814.00 C439.80,814.00 435.60,809.92 431.11,804.94 ZM 566.60 811.71 L 563.70 809.35 L 571.10 801.30 L 578.50 793.26 L 578.32 784.88 C578.22,780.27 578.38,773.24 578.69,769.25 L 579.23 762.00 L 586.00 762.00 L 586.00 796.93 L 577.75 805.50 L 569.50 814.07 ZM 438.08 691.08 C440.34,688.82 441.00,687.24 441.00,684.13 C441.00,678.37 437.80,674.96 431.76,674.28 C427.55,673.80 426.80,674.05 424.05,676.80 C417.49,683.36 421.79,694.00 431.00,694.00 C434.26,694.00 435.78,693.37 438.08,691.08 ZM 577.67 513.33 C578.03,513.70 579.61,514.00 581.17,514.00 L 584.00 514.00 L 584.00 506.00 C584.00,497.82 584.45,497.02 587.88,499.16 C590.02,500.49 593.00,499.67 593.00,497.75 C593.00,497.03 590.30,493.76 586.99,490.49 L 580.98 484.54 L 574.24 491.32 C567.93,497.67 567.62,498.19 569.35,499.49 C570.68,500.48 571.91,500.61 573.67,499.94 C575.02,499.42 576.33,499.00 576.57,499.00 C576.80,499.00 577.00,502.08 577.00,505.83 C577.00,509.59 577.30,512.97 577.67,513.33 ZM 530.00 334.00 C536.05,340.05 545.39,331.29 540.44,324.22 C538.53,321.50 532.57,321.18 529.83,323.65 C527.35,325.89 527.45,331.45 530.00,334.00 ZM 499.56 395.78 C502.82,400.43 512.00,397.01 512.00,391.14 C512.00,387.69 508.30,384.00 504.83,384.00 C499.08,384.00 496.05,390.77 499.56,395.78 ZM 327.61 553.42 C328.73,548.96 323.83,544.70 319.49,546.36 C317.14,547.27 315.41,551.83 316.65,553.83 C319.52,558.43 326.42,558.17 327.61,553.42 ZM 690.78 556.44 C695.05,553.45 692.43,546.00 687.11,546.00 C684.65,546.00 682.00,549.17 682.00,552.10 C682.00,554.77 685.01,558.00 687.50,558.00 C688.08,558.00 689.56,557.30 690.78,556.44 ZM 354.17 610.35 C358.13,606.77 354.87,600.54 349.37,601.18 C347.59,601.38 346.03,602.46 345.09,604.13 C343.77,606.49 343.80,607.04 345.33,609.38 C347.33,612.44 351.37,612.88 354.17,610.35 ZM 664.00 610.00 C666.43,607.57 666.54,605.26 664.35,602.83 C662.47,600.75 657.99,600.41 656.20,602.20 C654.35,604.05 654.71,609.73 656.75,610.92 C659.45,612.49 661.81,612.19 664.00,610.00 ZM 394.05 452.55 C396.91,455.59 399.42,455.67 401.44,452.78 C403.67,449.60 403.37,447.29 400.50,445.41 C398.18,443.89 397.82,443.89 395.45,445.44 C391.79,447.84 391.42,449.75 394.05,452.55 ZM 419.00 202.05 C434.25,194.17 451.01,188.35 469.00,184.78 C477.98,183.00 482.47,182.58 498.25,182.53 L 490.06 182.66 C468.62,183.00 441.89,190.48 419.00,202.05 ZM 740.05 622.82 C738.27,634.35 735.35,645.16 730.94,657.26 C730.38,658.81 729.70,660.53 728.94,662.37 C733.88,649.89 737.63,636.58 740.05,622.82 ZM 337.18 738.76 C328.57,731.25 320.87,723.71 314.05,716.12 C320.92,723.44 330.45,732.72 337.18,738.76 ZM 277.63 655.00 C273.17,642.52 270.04,629.80 268.21,616.72 C269.16,622.97 270.46,629.40 272.14,636.35 C273.66,642.70 275.50,648.93 277.63,655.00 ZM 377.55 232.15 C365.05,244.75 354.30,259.53 346.35,275.32 C354.54,259.06 365.05,244.59 377.55,232.15 ZM 717.37 686.38 C715.68,689.47 714.08,692.20 712.72,694.26 C711.06,696.79 709.09,699.51 706.84,702.37 C710.61,697.34 714.13,692.00 717.37,686.38 ZM 695.11 716.00 C689.38,722.19 682.81,728.73 675.64,735.39 C681.79,729.54 689.32,722.06 695.11,716.00 ZM 623.85 226.85 C637.63,239.05 649.61,253.26 658.61,268.39 C649.82,253.61 637.63,239.15 623.85,226.85 ZM 559.69 190.21 C568.84,193.09 576.99,196.47 585.80,200.90 C586.14,201.07 586.49,201.25 586.83,201.42 C578.09,196.98 568.89,193.19 559.69,190.21 ZM 522.13 860.79 C525.09,860.26 528.25,859.58 530.75,858.90 L 533.68 858.11 C528.99,859.51 525.82,860.31 522.13,860.79 ZM 628.00 295.00 L 628.00 295.27 L 622.82 295.00 ZM 430.93 834.14 C425.30,829.15 420.53,823.58 416.64,817.45 C420.44,823.39 425.16,828.88 430.93,834.14 ZM 553.68 850.80 C556.50,849.52 559.56,847.97 561.00,847.00 C562.38,846.07 565.42,844.05 567.77,842.51 C565.42,844.05 562.36,846.08 560.97,847.02 C559.39,848.09 556.83,849.41 553.68,850.80 ZM 459.69 331.36 C459.77,331.44 460.13,331.51 460.73,331.57 L 459.50 331.50 L 459.45 330.91 C459.53,331.12 459.61,331.27 459.69,331.36 ZM 620.46 777.83 C616.73,780.48 613.45,782.77 610.91,784.46 C613.40,782.77 616.96,780.30 620.46,777.83 ZM 459.00 325.46 L 458.88 324.00 L 459.00 324.00 ZM 607.90 786.46 C606.41,787.49 605.45,788.30 604.70,789.39 C605.48,788.23 606.43,787.43 607.90,786.46 ZM 292.42 687.02 C291.04,684.69 289.74,682.36 288.52,680.02 C289.77,682.39 291.07,684.73 292.42,687.02 ZM 594.00 295.00 L 597.75 294.88 C598.23,294.87 598.72,294.85 599.19,294.83 C598.51,294.87 597.84,294.90 597.25,294.92 Z" fill="rgb(46,170,167)"/>
<path d="M 408.61 800.58 C410.65,806.65 413.29,812.22 416.64,817.45 L 416.64 817.45 C420.53,823.58 425.30,829.15 430.93,834.14 C432.14,835.24 433.40,836.33 434.70,837.41 C438.47,840.54 445.50,844.87 451.45,848.00 L 442.95 843.94 L 439.47 846.59 C437.56,848.05 436.00,849.60 436.00,850.04 C436.00,850.48 437.60,851.82 439.55,853.03 C440.44,853.58 441.13,854.05 441.61,854.44 C440.72,853.82 439.49,853.01 438.13,852.17 C420.74,841.48 404.37,820.87 399.46,803.50 C398.52,800.20 397.36,797.00 396.87,796.38 C396.38,795.77 391.82,792.43 386.74,788.96 C338.68,756.13 304.00,724.18 286.65,696.73 C271.99,673.55 260.45,640.57 257.00,612.00 C255.82,602.22 256.05,564.14 257.24,557.10 C257.31,558.74 257.29,561.05 257.17,564.00 L 256.77 574.00 L 265.60 574.00 L 266.80 568.19 C267.17,566.39 267.51,564.25 267.73,562.37 C267.43,565.35 267.16,568.38 266.93,571.50 C265.67,588.43 265.98,602.06 268.21,616.72 C270.04,629.80 273.17,642.52 277.63,655.00 L 277.63 655.00 C280.68,663.68 284.32,672.05 288.52,680.02 C289.74,682.36 291.04,684.69 292.42,687.02 C297.21,695.20 302.61,702.89 308.56,710.00 C310.02,711.74 311.91,713.83 314.05,716.12 C320.87,723.71 328.57,731.25 337.18,738.76 L 337.18 738.76 C339.32,740.68 341.18,742.28 342.58,743.37 C347.34,747.34 352.34,751.31 357.61,755.26 C363.16,759.44 368.34,763.47 369.11,764.22 C370.79,765.87 383.09,774.57 395.89,783.18 L 405.29 789.50 L 407.64 797.50 C407.95,798.54 408.27,799.57 408.61,800.58 ZM 426.63 539.86 C424.15,540.49 418.38,540.98 413.81,540.96 C401.50,540.89 394.99,538.11 390.50,530.99 C388.21,527.38 388.00,526.07 388.00,515.73 C388.00,505.98 388.31,503.82 390.25,500.02 C394.39,491.92 395.65,491.50 415.70,491.49 L 433.24 491.48 L 436.58 487.63 C440.34,483.27 441.22,479.30 440.78,468.50 L 440.50 461.50 L 445.55 461.62 C459.09,461.95 466.73,472.85 465.80,490.50 C465.29,500.32 462.24,506.49 455.77,510.77 C451.69,513.47 451.46,513.50 432.33,513.81 C413.59,514.11 413.00,514.18 413.00,516.18 C413.00,518.16 413.44,518.22 425.18,517.87 L 437.35 517.50 L 438.20 520.50 C438.67,522.15 438.78,525.51 438.43,527.97 C437.65,533.60 433.04,538.25 426.63,539.86 ZM 664.58 745.00 C665.31,744.93 669.87,740.88 675.64,735.39 C682.81,728.73 689.38,722.19 695.11,716.00 C698.19,712.78 700.78,709.96 702.40,708.00 C703.92,706.17 705.40,704.29 706.84,702.37 C709.09,699.51 711.06,696.79 712.72,694.26 C714.08,692.20 715.68,689.47 717.37,686.38 C721.73,678.83 725.61,670.79 728.94,662.37 C729.70,660.53 730.38,658.81 730.94,657.26 C735.35,645.16 738.27,634.35 740.05,622.82 L 740.05 622.82 C740.24,621.72 740.43,620.61 740.60,619.50 C741.87,611.53 742.34,602.86 742.30,588.00 C742.28,578.12 741.93,569.56 741.06,561.11 C741.55,564.58 742.03,568.27 742.53,572.25 L 743.12 577.00 L 752.00 577.00 L 752.10 568.75 C752.15,564.21 752.12,558.81 752.02,556.75 C751.96,555.34 752.03,554.36 752.27,553.76 C752.03,554.59 752.11,556.24 752.43,559.25 C753.54,569.64 753.28,604.94 752.02,613.95 C748.75,637.50 741.47,660.46 730.43,682.05 C717.80,706.75 698.99,728.84 669.50,753.61 C660.97,760.78 629.01,784.51 619.37,790.83 L 611.24 796.17 L 608.52 804.52 C607.03,809.12 603.78,816.34 601.30,820.56 C596.18,829.31 583.91,842.58 573.84,850.26 C569.68,853.43 567.41,855.50 567.08,856.38 C567.01,855.97 567.96,854.60 569.33,853.18 L 572.01 850.38 L 569.20 847.69 L 566.39 845.00 L 557.06 849.22 C558.67,848.42 560.00,847.68 560.97,847.02 C562.36,846.08 565.42,844.05 567.77,842.51 C583.49,832.18 596.38,814.72 602.03,796.11 C603.06,792.72 603.75,790.79 604.70,789.39 L 604.70 789.39 C605.45,788.30 606.41,787.49 607.90,786.46 C608.05,786.36 608.21,786.25 608.38,786.15 C608.97,785.77 609.84,785.19 610.91,784.46 C613.44,782.77 616.73,780.48 620.45,777.84 L 620.46 777.83 C621.23,777.29 622.00,776.74 622.75,776.20 L 633.00 768.91 L 633.00 768.78 C644.62,760.29 657.16,750.87 664.58,745.00 ZM 456.69 408.00 L 424.32 408.00 L 423.65 387.18 C423.28,375.92 423.26,365.30 423.59,363.31 C423.60,363.26 423.61,363.21 423.62,363.17 C424.22,360.14 424.34,360.08 430.87,359.79 L 437.50 359.50 L 437.76 328.69 L 438.03 297.88 L 441.76 298.19 L 445.50 298.50 L 445.50 359.50 L 451.75 359.80 L 458.00 360.10 L 458.00 368.89 C458.00,373.73 457.70,384.50 457.34,392.84 ZM 550.50 359.50 L 563.00 358.90 L 563.00 297.88 L 566.59 298.19 L 570.18 298.50 L 570.05 328.75 L 569.92 359.00 L 573.21 359.01 C575.02,359.02 578.20,359.30 580.27,359.64 L 584.04 360.27 L 583.77 383.88 L 583.50 407.50 L 549.96 408.05 ZM 315.30 694.04 C306.80,688.86 306.87,676.22 315.42,671.18 L 318.92 669.11 L 318.30 645.31 L 317.67 621.50 L 298.59 601.71 C288.09,590.83 279.34,581.46 279.15,580.90 C278.68,579.56 282.08,575.85 283.44,576.21 C284.02,576.37 293.84,585.98 305.25,597.57 L 326.00 618.64 L 326.00 669.57 L 329.01 671.34 C337.32,676.26 336.78,689.96 328.09,694.45 C324.04,696.55 319.16,696.39 315.30,694.04 ZM 683.46 694.94 C675.84,692.72 671.30,682.33 675.17,675.96 C676.19,674.29 678.59,671.99 680.51,670.86 L 684.00 668.80 L 684.00 619.35 L 695.07 607.93 C701.15,601.64 710.45,591.89 715.72,586.25 C720.99,580.61 725.84,576.00 726.50,576.00 C728.07,576.00 731.30,579.61 730.85,580.86 C730.66,581.40 721.61,591.05 710.75,602.32 L 691.00 622.81 L 691.00 668.95 L 693.90 670.45 C697.97,672.55 701.32,679.76 700.43,684.51 C699.52,689.38 695.69,693.72 691.19,694.97 C690.95,695.03 690.72,695.09 690.52,695.15 C688.89,695.61 688.08,695.83 687.28,695.83 C686.38,695.82 685.48,695.52 683.46,694.94 ZM 381.00 294.00 L 415.05 294.00 L 414.50 328.50 L 397.75 328.77 L 381.00 329.05 ZM 594.00 295.00 L 597.25 294.92 C597.84,294.90 598.51,294.87 599.19,294.83 C600.73,294.75 602.08,294.63 602.50,294.54 C602.72,294.50 602.87,294.48 603.00,294.46 C604.25,294.28 609.44,294.34 615.00,294.60 L 615.00 295.00 L 622.82 295.00 L 628.00 295.27 L 628.00 310.42 C628.00,318.90 627.73,326.55 627.39,327.42 C626.87,328.77 624.42,329.00 610.39,329.00 L 594.00 329.00 ZM 554.50 723.50 L 570.75 723.50 C579.69,723.50 587.00,723.84 587.00,724.25 L 587.00 758.00 L 553.95 758.00 ZM 573.44 551.14 C583.77,552.07 598.53,551.05 604.50,549.00 C622.72,542.73 632.47,527.03 633.71,501.97 C634.07,494.57 634.05,491.42 633.38,489.12 C634.97,492.62 635.58,493.00 638.55,493.00 C640.16,493.00 641.19,492.78 641.66,492.13 C641.88,494.22 641.96,496.62 641.96,499.50 C641.98,529.68 628.43,550.14 603.46,557.61 C599.23,558.87 593.97,559.40 585.35,559.44 C577.52,559.48 573.41,559.86 573.80,560.50 C574.82,562.17 579.41,568.69 584.13,575.27 C576.01,564.06 574.95,562.66 569.75,556.03 C567.14,552.70 565.00,549.71 565.00,549.39 C565.00,549.21 564.39,548.35 563.44,547.16 C566.25,550.29 567.17,550.57 573.44,551.14 ZM 792.00 356.95 L 792.00 387.00 L 777.97 387.00 C767.38,387.00 763.81,386.68 763.44,385.70 C763.16,384.98 763.07,378.35 763.22,370.95 L 763.50 357.50 L 777.75 357.22 ZM 560.00 439.61 L 560.00 443.00 L 451.00 443.00 L 451.00 440.12 C451.00,438.54 451.59,436.76 452.31,436.16 C453.73,434.98 555.36,434.43 558.37,435.59 C559.43,436.00 560.00,437.40 560.00,439.61 ZM 266.67 357.62 C266.20,357.98 246.07,358.47 243.25,358.19 L 240.00 357.87 L 240.00 329.00 L 253.50 329.00 C265.66,329.00 267.01,329.17 267.08,330.75 C267.22,333.76 266.86,357.48 266.67,357.62 ZM 459.69 331.36 C459.61,331.27 459.53,331.12 459.45,330.91 L 459.00 325.46 L 459.00 324.00 L 470.00 324.00 L 470.00 258.00 L 478.00 258.00 L 478.00 324.00 L 490.12 324.00 L 489.50 331.50 L 474.94 331.78 C470.60,331.86 466.60,331.84 463.78,331.75 L 460.73 331.57 C460.13,331.51 459.77,331.44 459.69,331.36 ZM 237.78 387.17 C235.67,388.52 212.95,388.02 212.40,386.61 C212.15,385.94 212.06,379.57 212.22,372.45 L 212.50 359.50 L 238.50 359.50 L 238.78 372.92 C238.99,382.99 238.74,386.55 237.78,387.17 ZM 442.65 607.09 C442.87,607.63 443.14,608.12 443.47,608.56 C444.83,610.36 444.94,610.18 444.98,606.00 C445.01,603.15 445.00,601.29 445.91,600.54 C447.58,599.17 452.39,601.63 466.37,608.76 L 467.13 609.15 L 487.50 619.54 L 487.79 628.51 C487.95,633.45 488.52,637.92 489.04,638.44 C489.57,638.97 490.00,639.98 490.00,640.70 C490.00,640.96 489.74,641.17 489.10,641.34 C489.64,641.18 489.83,640.99 489.75,640.75 C489.53,640.06 486.00,637.65 481.92,635.40 C468.35,627.90 448.54,615.20 445.61,612.13 C444.21,610.66 443.22,608.95 442.65,607.09 ZM 425.40 570.79 C428.58,566.21 430.97,562.58 431.21,561.93 C431.72,560.58 430.43,560.36 421.65,560.33 C415.57,560.30 408.94,559.62 405.11,558.63 C386.68,553.85 371.07,538.75 368.52,523.25 L 367.82 519.00 L 371.91 519.00 C374.16,519.00 376.00,519.43 376.00,519.96 C376.00,520.49 376.93,523.42 378.07,526.46 C380.47,532.87 388.02,541.65 394.28,545.31 C404.60,551.34 422.27,554.28 434.64,552.01 C439.17,551.19 440.86,550.76 443.53,548.48 C438.73,553.57 432.17,561.67 425.40,570.79 ZM 525.50 634.73 C521.53,637.01 519.33,638.35 518.26,639.29 C518.48,639.01 518.74,638.74 519.02,638.48 C520.69,636.97 521.00,635.39 521.00,628.50 C521.00,621.93 521.35,620.01 522.75,618.82 C523.71,618.00 532.77,612.94 542.89,607.58 C563.22,596.80 563.49,596.77 562.57,605.45 L 562.05 610.40 L 564.26 608.19 C566.26,606.18 566.83,602.71 565.95,598.82 C567.41,604.43 565.28,609.49 559.71,613.64 C555.62,616.69 537.68,627.76 525.50,634.73 ZM 498.25 512.27 C485.38,512.05 480.95,512.07 480.06,510.32 C479.60,509.40 480.09,508.01 480.85,505.86 C480.93,505.63 481.01,505.40 481.10,505.15 L 482.20 502.00 L 527.91 502.00 L 528.55 505.40 C528.90,507.27 529.03,509.63 528.83,510.65 C528.43,512.77 528.05,512.79 498.25,512.27 ZM 485.00 489.58 C485.00,489.48 485.00,489.38 485.00,489.28 C485.00,487.72 485.00,486.62 485.50,485.85 C486.69,484.00 490.74,484.00 504.48,484.00 L 505.61 484.00 C523.40,484.00 525.00,484.14 525.01,485.75 C525.02,486.71 525.30,488.51 525.63,489.75 L 526.23 492.00 L 485.00 492.00 ZM 682.07 686.37 C684.46,689.40 688.95,689.91 691.43,687.43 C695.82,683.03 693.53,676.00 687.70,676.00 C680.75,676.00 677.96,681.14 682.07,686.37 ZM 317.20 687.80 C317.86,688.46 320.08,689.00 322.14,689.00 C328.44,689.00 331.32,682.24 326.81,678.04 C322.29,673.83 316.00,676.64 316.00,682.86 C316.00,684.92 316.54,687.14 317.20,687.80 ZM 424.02 532.22 C426.96,534.60 430.12,534.16 431.61,531.17 C433.17,528.03 432.35,525.48 429.36,524.12 C423.99,521.67 419.47,528.53 424.02,532.22 ZM 267.89 560.81 C267.96,560.00 268.00,559.30 268.00,558.76 C268.00,554.23 269.68,544.53 272.42,532.41 C270.32,542.27 268.90,551.30 267.89,560.81 ZM 586.37 462.61 C603.95,462.88 608.14,463.32 611.50,464.30 C611.58,464.32 611.66,464.35 611.75,464.37 C606.85,463.33 599.89,462.86 586.37,462.61 ZM 452.01 539.67 C454.91,536.07 457.33,532.05 460.69,525.50 C464.79,517.51 467.89,509.91 469.96,502.83 C467.90,509.90 464.81,517.49 460.74,525.50 C457.16,532.53 455.23,535.91 452.01,539.67 ZM 611.29 843.54 C626.53,837.75 641.98,830.57 656.70,822.47 C643.39,829.82 629.49,836.43 615.83,841.82 C614.46,842.36 612.94,842.94 611.29,843.54 ZM 471.00 855.83 L 471.00 855.94 L 476.70 857.60 C477.95,857.96 479.19,858.30 480.42,858.62 C473.61,857.00 466.75,854.71 459.58,851.68 C459.68,851.71 459.77,851.74 459.86,851.77 C463.41,853.24 467.12,854.59 471.00,855.83 ZM 431.37 853.28 C427.82,852.28 423.36,851.02 419.50,849.94 C408.46,846.86 397.00,842.80 385.57,838.00 C361.05,827.72 336.71,814.01 317.29,799.22 C336.67,813.98 361.02,827.69 385.57,838.00 C397.18,842.87 408.82,846.97 420.00,850.05 C423.98,851.15 428.22,852.36 431.37,853.28 ZM 563.75 593.24 C562.11,590.51 559.07,586.82 556.10,583.76 C558.60,586.26 561.13,589.14 562.74,591.51 C563.06,591.98 563.41,592.57 563.75,593.24 ZM 256.65 554.05 C255.12,554.58 246.82,559.67 237.47,565.82 C247.36,559.32 255.92,554.00 256.51,554.00 C256.56,554.00 256.60,554.02 256.65,554.05 ZM 560.21 543.37 C560.02,543.16 559.84,542.96 559.67,542.76 C557.66,540.50 556.32,539.00 556.04,538.02 C557.03,539.38 558.59,541.39 560.21,543.37 ZM 571.89 855.73 C574.81,854.93 579.39,853.67 584.33,852.32 C579.41,853.77 575.01,854.99 571.89,855.73 ZM 629.06 472.37 C631.02,473.77 632.72,475.25 634.08,476.79 C636.70,479.73 638.48,482.10 639.68,484.60 C637.40,480.14 633.49,475.69 629.06,472.37 ZM 444.42 594.35 C445.00,593.30 445.80,592.07 446.75,590.77 C446.07,591.73 445.46,592.65 444.96,593.50 C443.40,596.16 442.44,598.97 442.12,601.53 C442.35,599.18 443.11,596.74 444.42,594.35 ZM 548.72 578.00 C546.98,578.10 539.34,582.85 531.56,588.23 C539.40,582.80 547.08,578.00 548.67,578.00 C548.68,578.00 548.70,578.00 548.72,578.00 ZM 628.85 482.89 C626.91,481.26 624.75,480.01 623.48,480.00 C624.94,480.01 626.97,481.19 628.85,482.89 ZM 561.00 536.35 C563.16,536.34 566.07,536.43 569.89,536.56 L 569.89 536.56 C570.94,536.60 572.05,536.64 573.24,536.68 C574.19,536.71 575.09,536.74 575.96,536.76 C575.10,536.74 574.19,536.71 573.25,536.68 C568.55,536.52 564.25,536.41 561.00,536.35 ZM 753.20 553.00 C753.21,553.00 753.22,553.00 753.23,553.00 C753.99,553.00 769.21,562.83 787.06,574.84 C769.28,562.87 754.08,553.07 753.20,553.00 ZM 534.00 858.04 C529.55,859.36 526.45,860.16 523.04,860.67 C526.36,860.17 529.39,859.40 533.68,858.11 L 534.32 857.94 C534.21,857.97 534.10,858.00 534.00,858.04 ZM 517.59 641.15 C517.70,641.30 518.43,641.41 519.66,641.50 C518.42,641.42 517.69,641.30 517.60,641.16 C517.60,641.16 517.60,641.15 517.59,641.15 ZM 411.97 589.91 C411.62,590.45 411.33,590.86 410.82,590.88 C411.33,590.85 411.61,590.45 411.97,589.91 C412.04,589.80 412.14,589.66 412.26,589.48 C412.16,589.62 412.07,589.77 411.97,589.91 Z" fill="rgb(163,156,150)"/>
</g>
</svg>